HIERARCHY
ROOT Hips
{
  OFFSET 5.80788e-005 67.184 3.4734
  CHANNELS 6 Xposition Yposition Zposition Zrotation Xrotation Yrotation
  JOINT Chest
  {
    OFFSET 0 8.7983 -4.7612
    CHANNELS 6 Xposition Yposition Zposition Zrotation Xrotation Yrotation
    JOINT Chest2
    {
      OFFSET 0 8.0291 0.4195
      CHANNELS 6 Xposition Yposition Zposition Zrotation Xrotation Yrotation
      JOINT Chest3
      {
        OFFSET 0 9.9351 -2.2114
        CHANNELS 6 Xposition Yposition Zposition Zrotation Xrotation Yrotation
        JOINT Neck
        {
          OFFSET 0 22.3885 -0.4656
          CHANNELS 6 Xposition Yposition Zposition Zrotation Xrotation Yrotation
          JOINT Head
          {
            OFFSET -0.0001 12.643 3.4389
            CHANNELS 6 Xposition Yposition Zposition Zrotation Xrotation Yrotation
            End Site
            {
              OFFSET 0.0001 17.6655 0.5274
            }
          }
        }
        JOINT LeftCollar
        {
          OFFSET 2.2603 21.606 7.4023
          CHANNELS 6 Xposition Yposition Zposition Zrotation Xrotation Yrotation
          JOINT LeftShoulder
          {
            OFFSET 13.5163 -1.1332 -5.0146
            CHANNELS 6 Xposition Yposition Zposition Zrotation Xrotation Yrotation
            JOINT LeftElbow
            {
              OFFSET -0.0995 -28.05 -0.2431
              CHANNELS 6 Xposition Yposition Zposition Zrotation Xrotation Yrotation
              JOINT LeftWrist
              {
                OFFSET 0.0679 -23.3996 -0.1402
                CHANNELS 6 Xposition Yposition Zposition Zrotation Xrotation Yrotation
                JOINT LeftFinger1
                {
                  OFFSET 0.7932 -9.069 2.5189
                  CHANNELS 6 Xposition Yposition Zposition Zrotation Xrotation Yrotation
                  JOINT LeftFinger11
                  {
                    OFFSET -0.8272 -3.3923 0.5977
                    CHANNELS 6 Xposition Yposition Zposition Zrotation Xrotation Yrotation
                    JOINT LeftFinger12
                    {
                      OFFSET -0.5649 -2.3158 0.4082
                      CHANNELS 6 Xposition Yposition Zposition Zrotation Xrotation Yrotation
                      End Site
                      {
                        OFFSET -0.4919 -1.6479 0.2673
                      }
                    }
                  }
                }
                JOINT LeftFinger2
                {
                  OFFSET 0.9159 -9.2044 0.2193
                  CHANNELS 6 Xposition Yposition Zposition Zrotation Xrotation Yrotation
                  JOINT LeftFinger21
                  {
                    OFFSET 0.0117 -4.1944 -0.0248
                    CHANNELS 6 Xposition Yposition Zposition Zrotation Xrotation Yrotation
                    JOINT LeftFinger22
                    {
                      OFFSET 0.0071 -2.3249 -0.0142
                      CHANNELS 6 Xposition Yposition Zposition Zrotation Xrotation Yrotation
                      End Site
                      {
                        OFFSET -0.1475 -2.0882 0.0028
                      }
                    }
                  }
                }
                JOINT LeftFinger3
                {
                  OFFSET 0.6113 -8.7231 -2.0637
                  CHANNELS 6 Xposition Yposition Zposition Zrotation Xrotation Yrotation
                  JOINT LeftFinger31
                  {
                    OFFSET -0.1927 -3.8059 -0.2383
                    CHANNELS 6 Xposition Yposition Zposition Zrotation Xrotation Yrotation
                    JOINT LeftFinger32
                    {
                      OFFSET -0.1091 -2.1688 -0.1362
                      CHANNELS 6 Xposition Yposition Zposition Zrotation Xrotation Yrotation
                      End Site
                      {
                        OFFSET -0.2358 -1.9176 -0.0906
                      }
                    }
                  }
                }
                JOINT LeftFinger4
                {
                  OFFSET -0.6151 -8.0947 -3.5641
                  CHANNELS 6 Xposition Yposition Zposition Zrotation Xrotation Yrotation
                  JOINT LeftFinger41
                  {
                    OFFSET -0.4882 -2.341 -0.6462
                    CHANNELS 6 Xposition Yposition Zposition Zrotation Xrotation Yrotation
                    JOINT LeftFinger42
                    {
                      OFFSET -0.3575 -1.7167 -0.4742
                      CHANNELS 6 Xposition Yposition Zposition Zrotation Xrotation Yrotation
                      End Site
                      {
                        OFFSET -0.4187 -1.5237 -0.3496
                      }
                    }
                  }
                }
                JOINT LeftFinger0
                {
                  OFFSET -1.42 -1.8761 1.4223
                  CHANNELS 6 Xposition Yposition Zposition Zrotation Xrotation Yrotation
                  JOINT LeftFinger01
                  {
                    OFFSET -1.1471 -3.4929 2.6334
                    CHANNELS 6 Xposition Yposition Zposition Zrotation Xrotation Yrotation
                    JOINT LeftFinger02
                    {
                      OFFSET -0.823 -2.3 1.6571
                      CHANNELS 6 Xposition Yposition Zposition Zrotation Xrotation Yrotation
                      End Site
                      {
                        OFFSET -0.5822 -1.6914 1.1582
                      }
                    }
                  }
                }
              }
            }
          }
        }
        JOINT RightCollar
        {
          OFFSET -2.2603 21.606 7.4023
          CHANNELS 6 Xposition Yposition Zposition Zrotation Xrotation Yrotation
          JOINT RightShoulder
          {
            OFFSET -13.5187 -1.1334 -5.0155
            CHANNELS 6 Xposition Yposition Zposition Zrotation Xrotation Yrotation
            JOINT RightElbow
            {
              OFFSET 0.0994 -28.0499 -0.2431
              CHANNELS 6 Xposition Yposition Zposition Zrotation Xrotation Yrotation
              JOINT RightWrist
              {
                OFFSET -0.0679 -23.3996 -0.1402
                CHANNELS 6 Xposition Yposition Zposition Zrotation Xrotation Yrotation
                JOINT RightFinger1
                {
                  OFFSET -0.7932 -9.0691 2.5189
                  CHANNELS 6 Xposition Yposition Zposition Zrotation Xrotation Yrotation
                  JOINT RightFinger11
                  {
                    OFFSET 0.8272 -3.3923 0.5977
                    CHANNELS 6 Xposition Yposition Zposition Zrotation Xrotation Yrotation
                    JOINT RightFinger12
                    {
                      OFFSET 0.565 -2.3158 0.4082
                      CHANNELS 6 Xposition Yposition Zposition Zrotation Xrotation Yrotation
                      End Site
                      {
                        OFFSET 0.4919 -1.6479 0.2673
                      }
                    }
                  }
                }
                JOINT RightFinger2
                {
                  OFFSET -0.916 -9.2044 0.2193
                  CHANNELS 6 Xposition Yposition Zposition Zrotation Xrotation Yrotation
                  JOINT RightFinger21
                  {
                    OFFSET -0.0117 -4.1944 -0.0248
                    CHANNELS 6 Xposition Yposition Zposition Zrotation Xrotation Yrotation
                    JOINT RightFinger22
                    {
                      OFFSET -0.0071 -2.3249 -0.0142
                      CHANNELS 6 Xposition Yposition Zposition Zrotation Xrotation Yrotation
                      End Site
                      {
                        OFFSET 0.1475 -2.0882 0.0028
                      }
                    }
                  }
                }
                JOINT RightFinger3
                {
                  OFFSET -0.6113 -8.7231 -2.0637
                  CHANNELS 6 Xposition Yposition Zposition Zrotation Xrotation Yrotation
                  JOINT RightFinger31
                  {
                    OFFSET 0.1927 -3.8059 -0.2383
                    CHANNELS 6 Xposition Yposition Zposition Zrotation Xrotation Yrotation
                    JOINT RightFinger32
                    {
                      OFFSET 0.1091 -2.1688 -0.1362
                      CHANNELS 6 Xposition Yposition Zposition Zrotation Xrotation Yrotation
                      End Site
                      {
                        OFFSET 0.2358 -1.9176 -0.0906
                      }
                    }
                  }
                }
                JOINT RightFinger4
                {
                  OFFSET 0.6151 -8.0947 -3.564
                  CHANNELS 6 Xposition Yposition Zposition Zrotation Xrotation Yrotation
                  JOINT RightFinger41
                  {
                    OFFSET 0.4882 -2.341 -0.6462
                    CHANNELS 6 Xposition Yposition Zposition Zrotation Xrotation Yrotation
                    JOINT RightFinger42
                    {
                      OFFSET 0.3574 -1.7166 -0.4742
                      CHANNELS 6 Xposition Yposition Zposition Zrotation Xrotation Yrotation
                      End Site
                      {
                        OFFSET 0.4187 -1.5237 -0.3496
                      }
                    }
                  }
                }
                JOINT RightFinger0
                {
                  OFFSET 1.4199 -1.8761 1.4221
                  CHANNELS 6 Xposition Yposition Zposition Zrotation Xrotation Yrotation
                  JOINT RightFinger01
                  {
                    OFFSET 1.1472 -3.4929 2.6336
                    CHANNELS 6 Xposition Yposition Zposition Zrotation Xrotation Yrotation
                    JOINT RightFinger02
                    {
                      OFFSET 0.8229 -2.3 1.6571
                      CHANNELS 6 Xposition Yposition Zposition Zrotation Xrotation Yrotation
                      End Site
                      {
                        OFFSET 0.5822 -1.6914 1.1582
                      }
                    }
                  }
                }
              }
            }
          }
        }
      }
    }
  }
  JOINT RightHip
  {
    OFFSET -9.412 3.9771 -0.7758
    CHANNELS 6 Xposition Yposition Zposition Zrotation Xrotation Yrotation
    JOINT RightKnee
    {
      OFFSET -0.7531 -40.938 0
      CHANNELS 6 Xposition Yposition Zposition Zrotation Xrotation Yrotation
      JOINT RightAnkle
      {
        OFFSET 0 -40.1986 0
        CHANNELS 6 Xposition Yposition Zposition Zrotation Xrotation Yrotation
        JOINT RightToe
        {
          OFFSET 0 -4.4182 9.239
          CHANNELS 6 Xposition Yposition Zposition Zrotation Xrotation Yrotation
          End Site
          {
            OFFSET 0 0 6.1981
          }
        }
      }
    }
  }
  JOINT LeftHip
  {
    OFFSET 9.4119 3.9773 -0.7758
    CHANNELS 6 Xposition Yposition Zposition Zrotation Xrotation Yrotation
    JOINT LeftKnee
    {
      OFFSET 0.7532 -40.9383 0
      CHANNELS 6 Xposition Yposition Zposition Zrotation Xrotation Yrotation
      JOINT LeftAnkle
      {
        OFFSET 0 -40.1986 0
        CHANNELS 6 Xposition Yposition Zposition Zrotation Xrotation Yrotation
        JOINT LeftToe
        {
          OFFSET 0 -4.4182 9.239
          CHANNELS 6 Xposition Yposition Zposition Zrotation Xrotation Yrotation
          End Site
          {
            OFFSET 0 0 6.1981
          }
        }
      }
    }
  }
}
MOTION
Frames:	4
Frame Time:	0.0333333
0.838546 32.9707 18.4276 -1.26022e-007 23.0235 1.94449e-007 0 8.7983 -4.7612 0.332195 2.39004 -0.503047 -2.22045e-016 8.0291 0.4195 0.686297 4.77702 -1.0213 0 9.9351 -2.2114 0.686298 4.77704 -1.0213 -4.44089e-016 22.3885 -0.4656 -2.11042e-005 2.20477 3.0502e-005 -0.0001 12.643 3.4389 -2.85643e-007 -0.885727 3.35133e-009 2.2603 21.606 7.4023 -21.7986 29.9857 -17.5474 13.5163 -1.1332 -5.0146 58.2356 -22.0528 82.4593 -0.0995 -28.05 -0.2431 -90.7493 -2.9941 9.84196 0.0679 -23.3996 -0.1402 3.06242 -43.2888 -135.206 0.7932 -9.069 2.5189 -9.54166e-015 0 -3.97569e-015 -0.8272 -3.3923 0.5977 -1.60152e-006 1.13396e-006 -1.80307e-006 -0.5649 -2.3158 0.4082 3.18055e-015 -1.59028e-015 -0 0.9159 -9.2044 0.2193 -9.54166e-015 0 -3.97569e-015 0.0117 -4.1944 -0.0248 -0.0128085 0.00232976 9.11863e-005 0.0071 -2.3249 -0.0142 5.53494e-006 -8.84972e-006 -7.60264e-006 0.6113 -8.7231 -2.0637 -9.54166e-015 0 -3.97569e-015 -0.1927 -3.8059 -0.2383 -0.0160499 0.00299445 0.000857097 -0.1091 -2.1688 -0.1362 0 0 -0 -0.6151 -8.0947 -3.5641 -9.54166e-015 0 -3.97569e-015 -0.4882 -2.341 -0.6462 -0.0125786 0.00311543 0.00281778 -0.3575 -1.7167 -0.4742 -9.54166e-015 0 2.38542e-015 -1.42 -1.8761 1.4223 -9.54166e-015 0 -3.97569e-015 -1.1471 -3.4929 2.6334 -1.60152e-006 1.13396e-006 -1.80307e-006 -0.823 -2.3 1.6571 3.18055e-015 -1.59028e-015 -0 -2.2603 21.606 7.4023 19.934 28.0563 12.7565 -13.5187 -1.1334 -5.0155 -55.1492 -25.5471 -78.9919 0.0994 -28.0499 -0.2431 90.6197 -1.80435 -8.53136 -0.0679 -23.3996 -0.1402 -2.9109 -40.0332 136.3 -0.7932 -9.0691 2.5189 3.18055e-015 -1.59028e-015 7.95139e-016 0.8272 -3.3923 0.5977 -2.20695e-031 1.59028e-015 7.95139e-015 0.565 -2.3158 0.4082 6.36111e-015 0 5.56597e-015 -0.916 -9.2044 0.2193 3.18055e-015 -1.59028e-015 7.95139e-016 -0.0117 -4.1944 -0.0248 0.01293 0.00231609 -7.81243e-005 -0.0071 -2.3249 -0.0142 -2.20695e-032 1.59028e-015 7.95139e-016 -0.6113 -8.7231 -2.0637 3.18055e-015 -1.59028e-015 7.95139e-016 0.1927 -3.8059 -0.2383 0.0163506 0.00304935 -0.000880925 0.1091 -2.1688 -0.1362 -4.59662e-006 2.07018e-006 8.25919e-007 0.6151 -8.0947 -3.564 3.18055e-015 -1.59028e-015 7.95139e-016 0.4882 -2.341 -0.6462 0.0145853 0.00368828 -0.00326364 0.3574 -1.7166 -0.4742 -6.15665e-006 -2.01354e-006 5.73815e-006 1.4199 -1.8761 1.4221 3.18055e-015 -1.59028e-015 7.95139e-016 1.1472 -3.4929 2.6336 -2.20695e-031 1.59028e-015 7.95139e-015 0.8229 -2.3 1.6571 6.36111e-015 0 5.56597e-015 -9.412 3.9771 -0.7758 -113.478 -64.5084 -111.706 -0.7531 -40.938 0 -168.004 77.3538 166.221 1.77636e-015 -40.1986 0 -1.91049 -15.2136 -6.93402 0 -4.4182 9.239 6.94752e-006 -1.63135e-006 -6.74114e-007 9.4119 3.9773 -0.7758 114.322 -65.5108 113.922 0.7532 -40.9383 7.10543e-015 168.92 76.498 -167.088 1.77636e-015 -40.1986 -7.10543e-015 3.49707 -16.5935 8.38676 0 -4.4182 9.239 -2.62483e-006 -2.51767e-006 -5.48669e-006 
0.838537 32.9687 18.1939 5.0324e-008 23.55 -9.12846e-008 1.11022e-016 8.7983 -4.7612 0.333625 2.25979 -0.501163 -2.22045e-016 8.0291 0.4195 0.687841 4.51656 -1.01669 2.22045e-016 9.9351 -2.2114 0.687841 4.51654 -1.01669 0 22.3885 -0.4656 -1.55141e-006 1.49152 2.48052e-006 -0.0001 12.643 3.4389 -2.30188e-007 -1.77439 1.32238e-009 2.2603 21.606 7.4023 -21.7986 29.9858 -17.5474 13.5163 -1.1332 -5.0146 58.2355 -22.0527 82.4593 -0.0995 -28.05 -0.2431 -90.9345 -2.97024 9.82584 0.0679 -23.3996 -0.1402 3.34515 -43.3005 -135.088 0.7932 -9.06901 2.5189 -6.36111e-015 -1.59028e-015 7.15625e-015 -0.8272 -3.3923 0.5977 -1.60287e-006 1.73163e-006 -1.80173e-006 -0.5649 -2.3158 0.4082 -0 0 1.59028e-015 0.9159 -9.20441 0.2193 -6.36111e-015 -1.59028e-015 7.15625e-015 0.0117 -4.1944 -0.0248 -0.0128328 0.00232853 9.31219e-005 0.0071 -2.3249 -0.0142 6.36111e-015 0 4.77083e-015 0.6113 -8.72311 -2.0637 -6.36111e-015 -1.59028e-015 7.15625e-015 -0.1927 -3.8059 -0.2383 -0.0160848 0.00300305 0.000853819 -0.1091 -2.1688 -0.1362 -3.18055e-015 -1.59028e-015 6.36111e-015 -0.6151 -8.09471 -3.5641 -6.36111e-015 -1.59028e-015 7.15625e-015 -0.4882 -2.341 -0.6462 -0.0125787 0.00312679 0.00283019 -0.3575 -1.7167 -0.4742 2.20695e-032 -1.59028e-015 7.95139e-016 -1.42 -1.8761 1.4223 -6.36111e-015 -1.59028e-015 7.15625e-015 -1.1471 -3.4929 2.6334 -1.60287e-006 1.73163e-006 -1.80173e-006 -0.823 -2.3 1.6571 -0 0 1.59028e-015 -2.2603 21.606 7.4023 19.934 28.0564 12.7564 -13.5187 -1.1334 -5.0155 -55.1492 -25.5471 -78.9919 0.0994 -28.0499 -0.2431 90.8001 -1.77731 -8.51481 -0.0679 -23.3996 -0.1402 -3.18882 -40.0418 136.185 -0.7932 -9.0691 2.5189 -9.35223e-006 -3.14397e-008 -4.26898e-006 0.8272 -3.3923 0.5977 4.71281e-006 -1.80146e-006 2.40406e-007 0.565 -2.3158 0.4082 0 0 -1.59028e-015 -0.916 -9.2044 0.2193 -9.35223e-006 -3.14397e-008 -4.26898e-006 -0.0117 -4.1944 -0.0248 0.0129616 0.0023213 -9.27256e-005 -0.0071 -2.3249 -0.0142 -3.03853e-006 3.02693e-007 -7.09328e-007 -0.6113 -8.7231 -2.0637 -9.35223e-006 -3.14397e-008 -4.26898e-006 0.1927 -3.8059 -0.2383 0.0163321 0.00302131 -0.000872174 0.1091 -2.1688 -0.1362 -6.36111e-015 1.59028e-015 -4.77083e-015 0.6151 -8.0947 -3.564 -9.35223e-006 -3.14397e-008 -4.26898e-006 0.4882 -2.341 -0.6462 0.0146258 0.00368522 -0.00327017 0.3574 -1.7166 -0.4742 2.63172e-006 5.87356e-006 -1.41139e-005 1.4199 -1.8761 1.4221 -9.35223e-006 -3.14397e-008 -4.26898e-006 1.1472 -3.4929 2.6336 4.71281e-006 -1.80146e-006 2.40406e-007 0.8229 -2.3 1.6571 0 0 -1.59028e-015 -9.412 3.9771 -0.7758 -115.11 -64.6188 -113.176 -0.7531 -40.938 7.10543e-015 -168.019 77.3387 166.231 1.77636e-015 -40.1986 7.10543e-015 -1.70083 -14.9541 -7.26353 0 -4.4182 9.239 1.64025e-006 -2.29468e-006 1.98908e-007 9.4119 3.9773 -0.7758 116.053 -65.6029 115.491 0.7532 -40.9383 7.10543e-015 168.933 76.4831 -167.096 0 -40.1986 7.10543e-015 3.29364 -16.3254 8.70817 3.55271e-015 -4.4182 9.239 -3.18055e-015 -6.73513e-008 6.36111e-015 
0.838524 32.9674 17.9601 -5.1477e-008 24.0763 5.99388e-007 -2.22045e-016 8.7983 -4.7612 0.335056 2.12959 -0.49927 0 8.0291 0.4195 0.689397 4.25613 -1.01205 0 9.9351 -2.2114 0.6894 4.25614 -1.01206 -4.44089e-016 22.3885 -0.4656 3.9714e-006 0.777613 -6.09433e-006 -0.0001 12.643 3.4389 6.81717e-007 -2.66401 -3.18352e-007 2.2603 21.606 7.4023 -21.7986 29.9859 -17.5474 13.5163 -1.1332 -5.0146 58.2356 -22.0528 82.4592 -0.0995 -28.05 -0.2431 -91.1197 -2.94619 9.80989 0.0679 -23.3996 -0.1402 3.6279 -43.3119 -134.97 0.7932 -9.069 2.5189 -5.37406e-007 1.13201e-005 1.06883e-005 -0.8272 -3.3923 0.5977 -6.36111e-015 0 -3.18055e-015 -0.5649 -2.3158 0.4082 0 1.59028e-015 -0 0.9159 -9.2044 0.2193 -5.37406e-007 1.13201e-005 1.06883e-005 0.0117 -4.1944 -0.0248 -0.0128249 0.00231636 7.91458e-005 0.0071 -2.3249 -0.0142 -3.18055e-015 -1.59028e-015 -7.95139e-016 0.6113 -8.7231 -2.0637 -5.37406e-007 1.13201e-005 1.06883e-005 -0.1927 -3.8059 -0.2383 -0.0160325 0.00298593 0.000850995 -0.1091 -2.1688 -0.1362 -4.41391e-032 1.59028e-015 1.59028e-015 -0.6151 -8.0947 -3.5641 -5.37406e-007 1.13201e-005 1.06883e-005 -0.4882 -2.341 -0.6462 -0.0126538 0.00313077 0.00283058 -0.3575 -1.7167 -0.4742 3.18055e-015 0 3.97569e-015 -1.42 -1.8761 1.4223 -5.37406e-007 1.13201e-005 1.06883e-005 -1.1471 -3.4929 2.6334 -6.36111e-015 0 -3.18055e-015 -0.823 -2.3 1.6571 0 1.59028e-015 -0 -2.2603 21.606 7.4023 19.9341 28.0564 12.7564 -13.5187 -1.1334 -5.0155 -55.1492 -25.5471 -78.9919 0.0994 -28.0499 -0.2431 90.9805 -1.75025 -8.49815 -0.0679 -23.3996 -0.1402 -3.46698 -40.0498 136.07 -0.7932 -9.0691 2.5189 0 0 -2.38542e-015 0.8272 -3.3923 0.5977 3.18055e-015 0 -7.95139e-016 0.565 -2.3158 0.4082 6.36111e-015 -3.18055e-015 -5.56597e-015 -0.916 -9.2044 0.2193 0 0 -2.38542e-015 -0.0117 -4.1944 -0.0248 0.0129162 0.00230937 -8.06601e-005 -0.0071 -2.3249 -0.0142 -3.18055e-015 7.95139e-015 -4.77083e-015 -0.6113 -8.7231 -2.0637 0 0 -2.38542e-015 0.1927 -3.8059 -0.2383 0.0163373 0.00303303 -0.000871811 0.1091 -2.1688 -0.1362 -3.18055e-015 -1.11319e-014 -1.43125e-014 0.6151 -8.0947 -3.564 0 0 -2.38542e-015 0.4882 -2.341 -0.6462 0.0145958 0.00368032 -0.00326319 0.3574 -1.7166 -0.4742 6.36111e-015 -1.59028e-015 -9.54166e-015 1.4199 -1.8761 1.4221 0 0 -2.38542e-015 1.1472 -3.4929 2.6336 3.18055e-015 0 -7.95139e-016 0.8229 -2.3 1.6571 6.36111e-015 -3.18055e-015 -5.56597e-015 -9.412 3.9771 -0.7758 -116.755 -64.7113 -114.658 -0.7531 -40.938 -7.10543e-015 -168.034 77.3236 166.242 1.77636e-015 -40.1986 0 -1.48992 -14.696 -7.59371 0 -4.4182 9.239 -4.27331e-006 3.7237e-006 -7.90784e-006 9.4119 3.9773 -0.7758 117.795 -65.6756 117.072 0.7532 -40.9383 0 168.947 76.468 -167.104 -3.55271e-015 -40.1986 0 3.08896 -16.0585 9.0302 3.55271e-015 -4.4182 9.239 2.38542e-015 -3.18055e-015 -3.18055e-015 
0.838516 32.9668 17.7263 1.98797e-008 24.6026 2.65979e-007 0 8.7983 -4.7612 0.336485 1.99939 -0.49737 0 8.0291 0.4195 0.690966 3.99574 -1.00741 0 9.9351 -2.2114 0.690965 3.99574 -1.00741 0 22.3885 -0.4656 7.59734e-006 0.0632589 -1.17557e-005 -0.0001 12.643 3.4389 -2.45302e-007 -3.55448 -2.3513e-007 2.2603 21.606 7.4023 -21.7986 29.9859 -17.5474 13.5163 -1.1332 -5.0146 58.2355 -22.0527 82.4593 -0.0995 -28.05 -0.2431 -91.3049 -2.92209 9.7938 0.0679 -23.3996 -0.1402 3.91091 -43.3228 -134.852 0.7932 -9.06901 2.5189 1.32417e-031 3.18055e-015 -2.38542e-015 -0.8272 -3.3923 0.5977 -3.18055e-015 0 3.97569e-015 -0.5649 -2.3158 0.4082 3.18055e-015 3.18055e-015 2.38542e-015 0.9159 -9.20441 0.2193 1.32417e-031 3.18055e-015 -2.38542e-015 0.0117 -4.1944 -0.0248 -0.012806 0.00231378 8.42938e-005 0.0071 -2.3249 -0.0142 8.82781e-032 1.59028e-015 -3.18055e-015 0.6113 -8.7231 -2.0637 1.32417e-031 3.18055e-015 -2.38542e-015 -0.1927 -3.8059 -0.2383 -0.0160269 0.00299158 0.000861506 -0.1091 -2.1688 -0.1362 3.31043e-031 4.77083e-015 -3.97569e-015 -0.6151 -8.0947 -3.5641 1.32417e-031 3.18055e-015 -2.38542e-015 -0.4882 -2.341 -0.6462 -0.0126114 0.00312594 0.00283246 -0.3575 -1.7167 -0.4742 -6.36111e-015 0 -5.56597e-015 -1.42 -1.8761 1.4223 1.32417e-031 3.18055e-015 -2.38542e-015 -1.1471 -3.4929 2.6334 -3.18055e-015 0 3.97569e-015 -0.823 -2.3 1.6571 3.18055e-015 3.18055e-015 2.38542e-015 -2.2603 21.606 7.4023 19.9341 28.0564 12.7564 -13.5187 -1.1334 -5.0155 -55.1492 -25.5471 -78.9919 0.0994 -28.0499 -0.2431 91.1608 -1.72315 -8.48177 -0.0679 -23.3996 -0.1402 -3.74496 -40.0575 135.956 -0.7932 -9.0691 2.5189 -3.18055e-015 0 1.59028e-015 0.8272 -3.3923 0.5977 -0 0 3.97569e-015 0.565 -2.3158 0.4082 1.32417e-031 -1.59028e-015 4.77083e-015 -0.916 -9.2044 0.2193 -3.18055e-015 0 1.59028e-015 -0.0117 -4.1944 -0.0248 0.0129679 0.00231554 -8.76096e-005 -0.0071 -2.3249 -0.0142 3.18055e-015 -1.59028e-015 3.97569e-015 -0.6113 -8.7231 -2.0637 -3.18055e-015 0 1.59028e-015 0.1927 -3.8059 -0.2383 0.0163369 0.00303558 -0.000872031 0.1091 -2.1688 -0.1362 3.18055e-015 -3.18055e-015 -1.66979e-014 0.6151 -8.0947 -3.564 -3.18055e-015 0 1.59028e-015 0.4882 -2.341 -0.6462 0.0146042 0.00367943 -0.00326299 0.3574 -1.7166 -0.4742 -3.18055e-015 3.18055e-015 -1.03368e-014 1.4199 -1.8761 1.4221 -3.18055e-015 0 1.59028e-015 1.1472 -3.4929 2.6336 -0 0 3.97569e-015 0.8229 -2.3 1.6571 1.32417e-031 -1.59028e-015 4.77083e-015 -9.412 3.9771 -0.7758 -118.41 -64.7856 -116.15 -0.7531 -40.938 0 -168.05 77.3082 166.252 0 -40.1986 0 -1.27775 -14.4391 -7.92452 0 -4.4182 9.239 -4.98081e-006 1.77132e-006 -2.80867e-006 9.4119 3.9773 -0.7758 119.545 -65.7286 118.661 0.7532 -40.9383 0 168.96 76.4528 -167.112 -1.77636e-015 -40.1986 0 2.88309 -15.7928 9.35286 0 -4.4182 9.239 -1.59028e-015 1.59028e-015 3.18055e-015 
